/vscmnt/brussel_pixiu_data/_data_brussel/112/vsc11236/PredSimResults/SUBJ06opt3D/weighted-trackIG/worker_01.mot
version=1
nRows=9
nColumns=50
inDegrees=yes
endheader
                time	         pelvis_tilt	         pelvis_list	     pelvis_rotation	           pelvis_tx	           pelvis_ty	           pelvis_tz	       hip_flexion_r	     hip_adduction_r	      hip_rotation_r	        knee_angle_r	       ankle_angle_r	         mtp_angle_r	       hip_flexion_l	     hip_adduction_l	      hip_rotation_l	        knee_angle_l	       ankle_angle_l	         mtp_angle_l	    lumbar_extension	      lumbar_bending	     lumbar_rotation	 ercspn_r/activation	 intobl_r/activation	 extobl_r/activation	    abd_r/activation	    add_r/activation	hamstrings_r/activation	bifemsh_r/activation	glut_max_r/activation	iliopsoas_r/activation	rect_fem_r/activation	  vasti_r/activation	gastroc_r/activation	 soleus_r/activation	tib_ant_r/activation	 ercspn_l/activation	 intobl_l/activation	 extobl_l/activation	    abd_l/activation	    add_l/activation	hamstrings_l/activation	bifemsh_l/activation	glut_max_l/activation	iliopsoas_l/activation	rect_fem_l/activation	  vasti_l/activation	gastroc_l/activation	 soleus_l/activation	tib_ant_l/activation	
          0.60187913	         -6.18728057	          1.02384322	         -5.09426598	          0.70419858	          0.92846872	          0.01068694	        -10.42196306	         -0.80374381	         -6.37044898	        -10.84686062	          8.58528483	         33.43559383	         32.85481929	         -1.17157237	         -7.90822849	         -8.57613001	          0.38929462	          0.22736773	         -5.70179008	          0.20218427	          8.04152697	          0.13087228	          0.00999999	          0.00999999	          0.08024005	          0.00999999	          0.00999999	          0.24611003	          0.01535237	          0.58820883	          0.01730706	          0.00999999	          0.24642323	          0.37943385	          0.02330607	          0.18677552	          0.16377660	          0.00999999	          0.00999999	          0.31504642	          0.06461635	          0.10871947	          0.01466119	          0.11726935	          0.01019758	          0.00999999	          0.00999999	          0.00999999	          0.52081612	
          0.61391671	         -6.27174395	          0.97253909	         -5.12531770	          0.72120425	          0.92664592	          0.01000163	        -10.85070551	         -0.93303696	         -6.75311878	        -11.74156636	          7.54824187	         35.36428226	         33.05087819	         -1.06453717	         -7.96014644	        -10.39865278	          0.10101903	          0.22498053	         -5.38541961	         -0.13963363	          8.52177808	          0.18538027	          0.00999999	          0.00999999	          0.06683182	          0.00999999	          0.01000000	          0.20498469	          0.01441502	          0.59177318	          0.01441502	          0.00999999	          0.20825946	          0.35499021	          0.01941159	          0.17354617	          0.13640930	          0.00999999	          0.00999999	          0.42546280	          0.06540661	          0.09055229	          0.11269783	          0.09767348	          0.00999999	          0.00999999	          0.01441502	          0.01730706	          0.53022720	
          0.62595429	         -6.32992831	          0.97464594	         -5.13970721	          0.73869515	          0.92502778	          0.00927466	        -11.14589601	         -1.15212825	         -7.13138670	        -12.95656215	          6.38934903	         37.32751787	         33.00811027	         -0.99233202	         -7.80870096	        -12.14665578	         -0.12158027	          0.19564750	         -5.03558334	         -0.54725217	          8.96136872	          0.16599211	          0.00999999	          0.00999999	          0.05566413	          0.00999999	          0.00999999	          0.20804652	          0.01200625	          0.59720393	          0.01200625	          0.00999999	          0.17345901	          0.32668457	          0.01616789	          0.14787124	          0.11361511	          0.00999999	          0.04218810	          0.35436736	          0.07088793	          0.07542088	          0.10772303	          0.08135210	          0.00999999	          0.00999999	          0.01200625	          0.01441502	          0.57525974	
          0.63799188	         -6.36565126	          1.00165773	         -5.12263084	          0.75641940	          0.92368999	          0.00840995	        -11.21871231	         -1.44115404	         -7.51880346	        -14.61626930	          5.08155408	         39.31726155	         32.81402205	         -0.90907527	         -7.78096186	        -13.67973728	         -0.43786369	          0.18414811	         -4.68494464	         -0.97639711	          9.34578289	          0.17482552	          0.00999999	          0.00999999	          0.04636258	          0.00999999	          0.00999999	          0.19626736	          0.00999999	          0.52865233	          0.00999999	          0.00999999	          0.14447376	          0.28508000	          0.01346621	          0.16142180	          0.09462986	          0.00999999	          0.08689795	          0.32767482	          0.07267892	          0.06281794	          0.12945141	          0.06775805	          0.00999999	          0.04413523	          0.00999999	          0.01200625	          0.62721207	
          0.65002946	         -6.38069242	          1.05012457	         -5.07550567	          0.77416530	          0.92274061	          0.00741969	        -11.00927275	         -1.80379974	         -7.92054135	        -16.78697984	          3.57827248	         41.28110826	         32.53997807	         -0.80898409	         -7.87117883	        -15.09592392	         -0.74950781	          0.14933816	         -4.35539260	         -1.42435354	          9.66889129	          0.21326733	          0.00999999	          0.00999999	          0.03861532	          0.00999999	          0.00999999	          0.17097858	          0.00999999	          0.44031378	          0.00999999	          0.00999999	          0.12033199	          0.23744273	          0.01121599	          0.15724529	          0.07881708	          0.00999999	          0.13612301	          0.29705241	          0.07212945	          0.05232097	          0.16648356	          0.05643558	          0.00999999	          0.10859740	          0.00999999	          0.00999999	          0.67251217	
          0.66206704	         -6.37818302	          1.13194874	         -5.00470985	          0.79173656	          0.92235166	          0.00631752	        -10.47716187	         -2.25985804	         -8.33380142	        -19.48938663	          1.83729903	         43.05336604	         32.21839956	         -0.66857510	         -7.99522426	        -16.50316707	         -0.63956866	          0.11490686	         -4.06055057	         -1.90190518	          9.93203949	          0.24922503	          0.00999999	          0.00999999	          0.03216265	          0.01469692	          0.07250371	          0.15376078	          0.00999999	          0.36673672	          0.00999999	          0.00999999	          0.10022434	          0.19776571	          0.00999999	          0.14852510	          0.06564663	          0.00999999	          0.18834145	          0.25330444	          0.07487332	          0.04357806	          0.14237651	          0.04700512	          0.00999999	          0.19744928	          0.00999999	          0.00999999	          0.63910362	
          0.67410463	         -6.36354870	          1.24584742	         -4.91985155	          0.80895131	          0.92270440	          0.00512499	         -9.59177913	         -2.81420629	         -8.75554497	        -22.72347312	         -0.12362064	         44.27953837	         31.81818129	         -0.46480492	         -8.04714684	        -17.84898443	          0.08872933	          0.17722121	         -3.81115670	         -2.40351841	         10.14360786	          0.27399797	          0.00999999	          0.00999999	          0.02678822	          0.13757856	          0.10948424	          0.13428035	          0.00999999	          0.30545449	          0.00999999	          0.00999999	          0.08347671	          0.16471878	          0.00999999	          0.13507628	          0.05467699	          0.00999999	          0.22171684	          0.23285724	          0.07131469	          0.03629611	          0.13562872	          0.03915049	          0.00999999	          0.27954142	          0.00999999	          0.00999999	          0.54614333	
          0.68614221	         -6.34253399	          1.36422232	         -4.81895922	          0.82568337	          0.92394316	          0.00387750	         -8.34145759	         -3.44272720	         -9.20025826	        -26.48486740	         -2.17837299	         44.39964700	         31.25399566	         -0.21084474	         -8.01936465	        -18.91930472	          1.19304760	          0.43651459	         -3.61565112	         -2.89732427	         10.30241105	          0.27413674	          0.00999999	          0.00999999	          0.02231187	          0.21003931	          0.12299564	          0.11184191	          0.00999999	          0.25441261	          0.00999999	          0.00999999	          0.06952764	          0.13719404	          0.00999999	          0.12745451	          0.04554038	          0.00999999	          0.23448773	          0.21313166	          0.07269083	          0.03023098	          0.11296497	          0.03260839	          0.00999999	          0.30717482	          0.00999999	          0.00999999	          0.45488200	
          0.69817979	         -6.31907682	          1.45415430	         -4.69834762	          0.84189034	          0.92605542	          0.00261694	         -6.75856971	         -4.11143563	         -9.65744965	        -30.64119651	         -4.47494251	         43.44134903	         30.47666601	          0.05726118	         -7.94816061	        -19.55133304	          2.27801573	          0.85365172	         -3.47675214	         -3.34864412	         10.40431858	          0.27112861	          0.00999999	          0.00999999	          0.01858353	          0.24869607	          0.15130852	          0.11642468	          0.00999999	          0.21189990	          0.00999999	          0.00999999	          0.05790947	          0.11426872	          0.00999999	          0.11640625	          0.03793052	          0.00999999	          0.22945001	          0.19767139	          0.07623580	          0.02517934	          0.09408836	          0.02715948	          0.00999999	          0.30416191	          0.00999999	          0.00999999	          0.37887057	
